# xmcd CD database file
#
# Track frame offsets:
#	150
#	26250
#	53950
#	78300
#	110275
#	145625
#	165525
#	191725
#	215475
#	229600
#	259225
#	284025
#	308925
#
# Disc length: 4324 seconds
#
# Revision: 0
# Processed by: cddbd v1.5.1PL0 Copyright (c) Steve Scherf et al.
# Submitted via: CDex 1.51
#
DISCID=b410e20d
DTITLE=Various Artist - Salsisimo - Hot Salsa Dancing
DYEAR=1992
DGENRE=Salsa
TTITLE0=Los Van Van - Aqui El Que Baila Gana
TTITLE1=NG La Banda feat. Isaac - La Expresiva
TTITLE2=Orquesta Reve - Mi Salsa Tiene Sandunga
TTITLE3=Orquesta Original De Manzanillo - Coge El Camaron
TTITLE4=Irakere - Rucu Rucu A Santa Clara
TTITLE5=Sexteto Raison - Que Manera De Quererte
TTITLE6=Grupo Son 14 - A Bayamo En Coche
TTITLE7=Grupo Moncada - Calman No Come Calman
TTITLE8=Malena Burke - De Noche Con Malena
TTITLE9=Juan Carlos Y Su Dan Den - Siempre Hay Un Ojo Que Te Ve
TTITLE10=Orchesta Pachito Alonso - Rico Pilon
TTITLE11=Miriam Bayrd - Aeio
TTITLE12=Grupo Sintesis - Asoyin
EXTD=YEAR: 1992
EXTT0=
EXTT1=
EXTT2=
EXTT3=
EXTT4=
EXTT5=
EXTT6=
EXTT7=
EXTT8=
EXTT9=
EXTT10=
EXTT11=
EXTT12=
PLAYORDER=
